<svg width="179" height="189" viewBox="0 0 179 189" fill="none" xmlns="http://www.w3.org/2000/svg">
<path d="M3 9C3 5.6863 5.68629 3 9 3H170C173.314 3 176 5.68629 176 9V180C176 183.314 173.314 186 170 186H9C5.68629 186 3 183.314 3 180V9Z" stroke="black" stroke-width="5"/>
<path d="M29 77H90.6863H120.343H135.172L142.882 80.5L150 84V112H90.6863H59.8431H44.4216L36.1176 108.5L29 105V77Z" fill="black"/>
<path d="M34.9314 33.7778L44.125 29H59.25H89.5H119.75H134.875L144.069 33.7778L150 37.3611V45.7222V62.4444H120.343V55.2778L90.6863 48.1111L75.2647 51.6944L59.8431 55.2778V72H29V46.9167V37.9583L34.9314 33.7778Z" fill="black"/>
<path d="M34.9314 33.7778L44.125 29H59.25H89.5H119.75H134.875L144.069 33.7778L150 37.3611V45.7222V62.4444H120.343V55.2778L90.6863 48.1111L75.2647 51.6944L59.8431 55.2778V72H29V46.9167V37.9583L34.9314 33.7778Z" fill="black"/>
<path d="M144.069 155.222L134.875 160H119.75H89.5H59.25H44.125L34.9314 155.222L29 151.639V143.278V126.556H58.6569V133.722L88.3137 140.889L103.735 137.306L119.157 133.722V117H150V142.083V151.042L144.069 155.222Z" fill="black"/>
<path d="M144.069 155.222L134.875 160H119.75H89.5H59.25H44.125L34.9314 155.222L29 151.639V143.278V126.556H58.6569V133.722L88.3137 140.889L103.735 137.306L119.157 133.722V117H150V142.083V151.042L144.069 155.222Z" fill="black"/>
</svg>
