<svg width="154" height="37" viewBox="0 0 154 37" fill="none" xmlns="http://www.w3.org/2000/svg">
<path d="M20.9716 11.1307C20.8352 9.75568 20.25 8.6875 19.2159 7.92614C18.1818 7.16477 16.7784 6.78409 15.0057 6.78409C13.8011 6.78409 12.7841 6.95454 11.9545 7.29545C11.125 7.625 10.4886 8.08523 10.0455 8.67614C9.61364 9.26705 9.39773 9.9375 9.39773 10.6875C9.375 11.3125 9.50568 11.858 9.78977 12.3239C10.0852 12.7898 10.4886 13.1932 11 13.5341C11.5114 13.8636 12.1023 14.1534 12.7727 14.4034C13.4432 14.642 14.1591 14.8466 14.9205 15.017L18.0568 15.767C19.5795 16.108 20.9773 16.5625 22.25 17.1307C23.5227 17.6989 24.625 18.3977 25.5568 19.2273C26.4886 20.0568 27.2102 21.0341 27.7216 22.1591C28.2443 23.2841 28.5114 24.5739 28.5227 26.0284C28.5114 28.1648 27.9659 30.017 26.8864 31.5852C25.8182 33.142 24.2727 34.3523 22.25 35.2159C20.2386 36.0682 17.8125 36.4943 14.9716 36.4943C12.1534 36.4943 9.69886 36.0625 7.60795 35.1989C5.52841 34.3352 3.90341 33.0568 2.73295 31.3636C1.57386 29.6591 0.965909 27.5511 0.909091 25.0398H8.05114C8.13068 26.2102 8.46591 27.1875 9.05682 27.9716C9.65909 28.7443 10.4602 29.3295 11.4602 29.7273C12.4716 30.1136 13.6136 30.3068 14.8864 30.3068C16.1364 30.3068 17.2216 30.125 18.142 29.7614C19.0739 29.3977 19.7955 28.892 20.3068 28.2443C20.8182 27.5966 21.0739 26.8523 21.0739 26.0114C21.0739 25.2273 20.8409 24.5682 20.375 24.0341C19.9205 23.5 19.25 23.0455 18.3636 22.6705C17.4886 22.2955 16.4148 21.9545 15.142 21.6477L11.3409 20.6932C8.39773 19.9773 6.07386 18.858 4.36932 17.3352C2.66477 15.8125 1.81818 13.7614 1.82955 11.1818C1.81818 9.06818 2.38068 7.22159 3.51705 5.64205C4.66477 4.0625 6.23864 2.82955 8.23864 1.94318C10.2386 1.05682 12.5114 0.613635 15.0568 0.613635C17.6477 0.613635 19.9091 1.05682 21.8409 1.94318C23.7841 2.82955 25.2955 4.0625 26.375 5.64205C27.4545 7.22159 28.0114 9.05114 28.0455 11.1307H20.9716ZM46.317 9.81818V15.2727H30.5499V9.81818H46.317ZM34.1295 3.54545H41.3909V27.9545C41.3909 28.625 41.4931 29.1477 41.6977 29.5227C41.9022 29.8864 42.1863 30.142 42.5499 30.2898C42.9249 30.4375 43.3568 30.5114 43.8454 30.5114C44.1863 30.5114 44.5272 30.483 44.8681 30.4261C45.209 30.358 45.4704 30.3068 45.6522 30.2727L46.7943 35.6761C46.4306 35.7898 45.9193 35.9205 45.2602 36.0682C44.6011 36.2273 43.7999 36.3239 42.8568 36.358C41.1068 36.4261 39.5727 36.1932 38.2545 35.6591C36.9477 35.125 35.9306 34.2955 35.2034 33.1705C34.4761 32.0455 34.1181 30.625 34.1295 28.9091V3.54545ZM57.553 36.4943C55.8826 36.4943 54.3939 36.2045 53.0871 35.625C51.7803 35.0341 50.7462 34.1648 49.9848 33.017C49.2348 31.858 48.8598 30.4148 48.8598 28.6875C48.8598 27.233 49.1269 26.0114 49.661 25.0227C50.1951 24.0341 50.9223 23.2386 51.8428 22.6364C52.7632 22.0341 53.8087 21.5795 54.9791 21.2727C56.161 20.9659 57.3996 20.75 58.6951 20.625C60.2178 20.4659 61.4451 20.3182 62.3769 20.1818C63.3087 20.0341 63.9848 19.8182 64.4053 19.5341C64.8257 19.25 65.036 18.8295 65.036 18.2727V18.1705C65.036 17.0909 64.6951 16.2557 64.0132 15.6648C63.3428 15.0739 62.3882 14.7784 61.1496 14.7784C59.8428 14.7784 58.803 15.0682 58.0303 15.6477C57.2576 16.2159 56.7462 16.9318 56.4962 17.7955L49.7803 17.25C50.1212 15.6591 50.7916 14.2841 51.7916 13.125C52.7916 11.9545 54.0814 11.0568 55.661 10.4318C57.2519 9.79545 59.0928 9.47727 61.1837 9.47727C62.6382 9.47727 64.0303 9.64773 65.3598 9.98864C66.7007 10.3295 67.8882 10.858 68.9223 11.5739C69.9678 12.2898 70.7916 13.2102 71.3939 14.3352C71.9962 15.4489 72.2973 16.7841 72.2973 18.3409V36H65.411V32.3693H65.2064C64.786 33.1875 64.2235 33.9091 63.5189 34.5341C62.8144 35.1477 61.9678 35.6307 60.9791 35.983C59.9905 36.3239 58.8485 36.4943 57.553 36.4943ZM59.6326 31.483C60.7007 31.483 61.6439 31.2727 62.4621 30.8523C63.2803 30.4205 63.9223 29.8409 64.3882 29.1136C64.8542 28.3864 65.0871 27.5625 65.0871 26.642V23.8636C64.8598 24.0114 64.5473 24.1477 64.1496 24.2727C63.7632 24.3864 63.3257 24.4943 62.8371 24.5966C62.3485 24.6875 61.8598 24.7727 61.3712 24.8523C60.8826 24.9205 60.4394 24.983 60.0416 25.0398C59.1894 25.1648 58.4451 25.3636 57.8087 25.6364C57.1723 25.9091 56.678 26.2784 56.3257 26.7443C55.9735 27.1989 55.7973 27.767 55.7973 28.4489C55.7973 29.4375 56.1553 30.1932 56.8712 30.7159C57.5985 31.2273 58.5189 31.483 59.6326 31.483ZM88.8004 36.5114C86.1186 36.5114 83.8118 35.9432 81.8799 34.8068C79.9595 33.6591 78.4822 32.0682 77.4481 30.0341C76.4254 28 75.914 25.6591 75.914 23.0114C75.914 20.3295 76.4311 17.9773 77.4652 15.9545C78.5106 13.9205 79.9936 12.3352 81.914 11.1989C83.8345 10.0511 86.1186 9.47727 88.7663 9.47727C91.0504 9.47727 93.0504 9.89205 94.7663 10.7216C96.4822 11.5511 97.8402 12.7159 98.8402 14.2159C99.8402 15.7159 100.391 17.4773 100.494 19.5H93.6413C93.4481 18.1932 92.9368 17.142 92.1072 16.3466C91.289 15.5398 90.2152 15.1364 88.8856 15.1364C87.7606 15.1364 86.7777 15.4432 85.9368 16.0568C85.1072 16.6591 84.4595 17.5398 83.9936 18.6989C83.5277 19.858 83.2947 21.2614 83.2947 22.9091C83.2947 24.5795 83.522 26 83.9765 27.1705C84.4424 28.3409 85.0959 29.233 85.9368 29.8466C86.7777 30.4602 87.7606 30.767 88.8856 30.767C89.7152 30.767 90.4595 30.5966 91.1186 30.2557C91.789 29.9148 92.3402 29.4205 92.772 28.7727C93.2152 28.1136 93.5049 27.3239 93.6413 26.4034H100.494C100.38 28.4034 99.8345 30.1648 98.8572 31.6875C97.8913 33.1989 96.5561 34.3807 94.8515 35.233C93.147 36.0852 91.1299 36.5114 88.8004 36.5114ZM110.762 28.4659L110.779 19.7557H111.836L120.223 9.81818H128.558L117.291 22.9773H115.569L110.762 28.4659ZM104.183 36V1.09091H111.444V36H104.183ZM120.546 36L112.842 24.5966L117.683 19.4659L129.052 36H120.546ZM131.024 36V31.6705L143.842 15.8011V15.6136H131.467V9.81818H152.586V14.5398L140.552 30.017V30.2045H153.03V36H131.024Z" fill="black"/>
</svg>
